<svg id="Layer_1" data-name="Layer 1" xmlns="http://www.w3.org/2000/svg" viewBox="0 0 494.34 229.81"><defs><style>.cls-1{fill:#d3932c;}</style></defs><title>KD-Minimal-SVG</title><path class="cls-1" d="M210.24,194.33l-45.77,40.51s-1.31,3.15-1.57-2.63-1.85-28.41-1.85-28.41-2.63-10-13.15-3.68a209,209,0,0,0-21,14.89s-8.68,2.2-21.3-16.21-43.4-16-43.4-16l-31.56-.1S10.08,188,10.87,204.85s6.84,21.83,6.84,21.83,18.41,18.15,39.45,19.2S90.3,250.62,90.3,253s1.32,17.1,1.32,17.1,9.2,7.89,17.36,4.47,9.2-5.52,11.31-6.57,2.36,5.26,2.36,5.26,15.52,21.83,24.47,25,13.41,0,13.41,0,2.63-1.57,2.63-7.89-.26-11.31,1.58-9.47,11.5,11.35,11.5,11.35l30.19,32.05s8.77,6.91,16-.49a14.44,14.44,0,0,0,2.85-16.08s-27.32-36.89-49.8-50.89c0,0,42.6-40.84,46-47.94a21.58,21.58,0,0,0,2-13s-5.35-8.41-13.15-1.51" transform="translate(-10.85 -132.13)"/><path class="cls-1" d="M246.67,201.37s7.5-1.78,9.27,31.16,5.33,60.76,5.33,60.76,22.68-6.9,30.38-18.54,6.5-36.1-2.77-44.58-20.12-15-24.65-14.6-16-7.69-3.16-16.57S313.15,217,313.15,217s24.85,12,66.67,1.78c0,0,8.68-1.39,27.42-11.64S472,190.32,472,190.32s-.6,1.77,8.48,4.34,23.28,1,23.28,1-43.6,13.21-62.73,20.91-41.43,22.09-41.43,22.09l-61,41.62s-40.24,21.9-44.58,25.06-24.85,15.58-43.59,12.82-16-26.24-16-26.24l2-84.23s-.65-7,10.26-6.31" transform="translate(-10.85 -132.13)"/><path class="cls-1" d="M181.77,332H284.94s17.55,23.27,17.55,26.63v3.35H164.41s-1.58-1,1.38-4.54,15.58-21.7,16-25.44" transform="translate(-10.85 -132.13)"/><path class="cls-1" d="M213.73,181.84s2.56-7.89,3.94-8.68,10.06-4.74,10.06-4.74-9.07-12-5.52-20.32,14.2-16,14.2-16,18.94,12.23,17.36,20.91a68.51,68.51,0,0,1-5.92,17s11.84,2.76,14.2,8.29,1,4.37,1,4.37Z" transform="translate(-10.85 -132.13)"/><path class="cls-1" d="M475,188.65s19.68-2.13,27.21,1.51-1.57,3.6-1.57,3.6a51.9,51.9,0,0,1-21.89-2.53,10,10,0,0,1-3.75-2.58" transform="translate(-10.85 -132.13)"/></svg>